<svg width="14" height="14" viewBox="0 0 14 14" fill="none" xmlns="http://www.w3.org/2000/svg">
<rect x="4.84266" y="2.06639" width="1.08544" height="2.31084" rx="0.0775316" transform="rotate(13.0714 4.84266 2.06639)" fill="#272A2F" stroke="#383B40" stroke-width="0.155063"/>
<rect x="6.16493" y="3.37492" width="1.08544" height="2.01582" rx="0.0775316" transform="rotate(-90 6.16493 3.37492)" fill="#272A2F" stroke="#383B40" stroke-width="0.155063"/>
<rect x="6.78542" y="7.09563" width="1.08544" height="1.39557" transform="rotate(-90 6.78542 7.09563)" fill="#272A2F" stroke="#383B40" stroke-width="0.155063"/>
<rect x="4.2024" y="4.82548" width="1.08544" height="3.07358" rx="0.0775316" transform="rotate(13.0714 4.2024 4.82548)" fill="#272A2F" stroke="#383B40" stroke-width="0.155063"/>
<rect x="3.38233" y="8.35807" width="1.08544" height="2.45672" rx="0.0775316" transform="rotate(13.0714 3.38233 8.35807)" fill="#272A2F" stroke="#383B40" stroke-width="0.155063"/>
<path d="M4.38074 10.3434C4.32452 10.3147 4.32452 10.2345 4.38074 10.2057L5.74304 9.51727C5.79456 9.49142 5.85532 9.52893 5.85535 9.58661V10.9626C5.85533 11.0203 5.79456 11.0578 5.74304 11.0319L4.38074 10.3434Z" fill="#272A2F" stroke="#383B40" stroke-width="0.155063"/>
<path d="M5.31091 6.62146C5.2547 6.59267 5.2547 6.51255 5.31091 6.48376L6.67322 5.79529C6.72473 5.76944 6.7855 5.80694 6.78552 5.86462V7.2406C6.78551 7.29829 6.72474 7.33579 6.67322 7.30994L5.31091 6.62146Z" fill="#272A2F" stroke="#383B40" stroke-width="0.155063"/>
<rect x="5.85549" y="10.817" width="1.08544" height="2.32595" rx="0.0775316" transform="rotate(-90 5.85549 10.817)" fill="#272A2F" stroke="#383B40" stroke-width="0.155063"/>
<mask id="path-10-inside-1_1_5668" fill="white">
<path d="M8.02958 5.93489C8.36552 5.93513 8.69813 5.99948 9.00841 6.12427C9.31869 6.24906 9.60057 6.43185 9.83795 6.66219C10.0753 6.89254 10.2636 7.16593 10.3919 7.46676C10.5203 7.76759 10.5862 8.08997 10.586 8.41549C10.5857 8.74101 10.5193 9.06329 10.3906 9.36394C10.2618 9.66458 10.0732 9.93771 9.83546 10.1677C9.59774 10.3977 9.31561 10.5801 9.00515 10.7045C8.69469 10.8288 8.36199 10.8927 8.02605 10.8924L8.02693 9.65497C8.19516 9.65509 8.36177 9.6231 8.51723 9.56083C8.6727 9.49856 8.81399 9.40722 8.93303 9.29204C9.05207 9.17686 9.14653 9.04009 9.21101 8.88953C9.2755 8.73898 9.30875 8.57759 9.30886 8.41458C9.30898 8.25157 9.27596 8.09013 9.21169 7.93948C9.14742 7.78884 9.05315 7.65193 8.93428 7.53658C8.8154 7.42123 8.67425 7.3297 8.51887 7.2672C8.36349 7.20471 8.19693 7.17249 8.0287 7.17237L8.02958 5.93489Z"/>
</mask>
<path d="M8.02958 5.93489C8.36552 5.93513 8.69813 5.99948 9.00841 6.12427C9.31869 6.24906 9.60057 6.43185 9.83795 6.66219C10.0753 6.89254 10.2636 7.16593 10.3919 7.46676C10.5203 7.76759 10.5862 8.08997 10.586 8.41549C10.5857 8.74101 10.5193 9.06329 10.3906 9.36394C10.2618 9.66458 10.0732 9.93771 9.83546 10.1677C9.59774 10.3977 9.31561 10.5801 9.00515 10.7045C8.69469 10.8288 8.36199 10.8927 8.02605 10.8924L8.02693 9.65497C8.19516 9.65509 8.36177 9.6231 8.51723 9.56083C8.6727 9.49856 8.81399 9.40722 8.93303 9.29204C9.05207 9.17686 9.14653 9.04009 9.21101 8.88953C9.2755 8.73898 9.30875 8.57759 9.30886 8.41458C9.30898 8.25157 9.27596 8.09013 9.21169 7.93948C9.14742 7.78884 9.05315 7.65193 8.93428 7.53658C8.8154 7.42123 8.67425 7.3297 8.51887 7.2672C8.36349 7.20471 8.19693 7.17249 8.0287 7.17237L8.02958 5.93489Z" fill="#272A2F" stroke="#383B40" stroke-width="0.310126" mask="url(#path-10-inside-1_1_5668)"/>
<mask id="path-11-inside-2_1_5668" fill="white">
<path d="M8.02958 2.21364C8.36552 2.21387 8.69813 2.27823 9.00841 2.40302C9.31869 2.52781 9.60057 2.7106 9.83795 2.94094C10.0753 3.17129 10.2636 3.44468 10.3919 3.74551C10.5203 4.04634 10.5862 4.36872 10.586 4.69424C10.5857 5.01975 10.5193 5.34204 10.3906 5.64268C10.2618 5.94333 10.0732 6.21646 9.83546 6.44646C9.59774 6.67647 9.31561 6.85886 9.00515 6.9832C8.69469 7.10755 8.36199 7.17143 8.02605 7.17119L8.02693 5.93371C8.19516 5.93383 8.36177 5.90185 8.51723 5.83958C8.6727 5.77731 8.81399 5.68597 8.93303 5.57079C9.05207 5.45561 9.14653 5.31884 9.21101 5.16828C9.2755 5.01773 9.30875 4.85634 9.30886 4.69333C9.30898 4.53032 9.27596 4.36888 9.21169 4.21823C9.14742 4.06758 9.05315 3.93068 8.93428 3.81533C8.8154 3.69998 8.67425 3.60844 8.51887 3.54595C8.36349 3.48346 8.19693 3.45123 8.0287 3.45111L8.02958 2.21364Z"/>
</mask>
<path d="M8.02958 2.21364C8.36552 2.21387 8.69813 2.27823 9.00841 2.40302C9.31869 2.52781 9.60057 2.7106 9.83795 2.94094C10.0753 3.17129 10.2636 3.44468 10.3919 3.74551C10.5203 4.04634 10.5862 4.36872 10.586 4.69424C10.5857 5.01975 10.5193 5.34204 10.3906 5.64268C10.2618 5.94333 10.0732 6.21646 9.83546 6.44646C9.59774 6.67647 9.31561 6.85886 9.00515 6.9832C8.69469 7.10755 8.36199 7.17143 8.02605 7.17119L8.02693 5.93371C8.19516 5.93383 8.36177 5.90185 8.51723 5.83958C8.6727 5.77731 8.81399 5.68597 8.93303 5.57079C9.05207 5.45561 9.14653 5.31884 9.21101 5.16828C9.2755 5.01773 9.30875 4.85634 9.30886 4.69333C9.30898 4.53032 9.27596 4.36888 9.21169 4.21823C9.14742 4.06758 9.05315 3.93068 8.93428 3.81533C8.8154 3.69998 8.67425 3.60844 8.51887 3.54595C8.36349 3.48346 8.19693 3.45123 8.0287 3.45111L8.02958 2.21364Z" fill="#272A2F" stroke="#383B40" stroke-width="0.310126" mask="url(#path-11-inside-2_1_5668)"/>
</svg>
