<svg width="14" height="14" viewBox="0 0 14 14" fill="none" xmlns="http://www.w3.org/2000/svg">
<path d="M7.21239 1.53556C7.01721 1.38376 6.91962 1.30785 6.81186 1.27868C6.71678 1.25293 6.61656 1.25293 6.52147 1.27868C6.41371 1.30785 6.31612 1.38376 6.12094 1.53556L2.35299 4.46619C2.10112 4.66209 1.97519 4.76004 1.88446 4.88271C1.80409 4.99137 1.74422 5.11378 1.70779 5.24393C1.66667 5.39085 1.66667 5.5504 1.66667 5.86948V9.88889C1.66667 10.5112 1.66667 10.8223 1.78777 11.06C1.8943 11.2691 2.06427 11.439 2.27334 11.5456C2.51102 11.6667 2.82216 11.6667 3.44444 11.6667H4.55555C4.71113 11.6667 4.78891 11.6667 4.84833 11.6364C4.9006 11.6098 4.94309 11.5673 4.96972 11.515C5 11.4556 5 11.3778 5 11.2222V7.55556C5 7.24442 5 7.08884 5.06055 6.97001C5.11381 6.86547 5.1988 6.78048 5.30334 6.72722C5.42218 6.66667 5.57775 6.66667 5.88889 6.66667H7.44444C7.75558 6.66667 7.91115 6.66667 8.02999 6.72722C8.13453 6.78048 8.21952 6.86547 8.27278 6.97001C8.33333 7.08884 8.33333 7.24442 8.33333 7.55556V11.2222C8.33333 11.3778 8.33333 11.4556 8.36361 11.515C8.39024 11.5673 8.43273 11.6098 8.485 11.6364C8.54442 11.6667 8.62221 11.6667 8.77778 11.6667H9.88889C10.5112 11.6667 10.8223 11.6667 11.06 11.5456C11.2691 11.439 11.439 11.2691 11.5456 11.06C11.6667 10.8223 11.6667 10.5112 11.6667 9.88889V5.86948C11.6667 5.5504 11.6667 5.39085 11.6255 5.24393C11.5891 5.11378 11.5292 4.99137 11.4489 4.88271C11.3581 4.76004 11.2322 4.66209 10.9803 4.46619L7.21239 1.53556Z" stroke="#374151" stroke-width="1.11333" stroke-linecap="round" stroke-linejoin="round"/>
</svg>
